<?xml version="1.0" standalone="no"?>
<!DOCTYPE svg PUBLIC "-//W3C//DTD SVG 20010904//EN"
 "http://www.w3.org/TR/2001/REC-SVG-20010904/DTD/svg10.dtd">
<svg version="1.0" xmlns="http://www.w3.org/2000/svg"
 width="512.000000pt" height="512.000000pt" viewBox="0 0 512.000000 512.000000"
 preserveAspectRatio="xMidYMid meet">

<g transform="translate(0.000000,512.000000) scale(0.100000,-0.100000)"
fill="#000000" stroke="none">
<path d="M1920 4194 c-14 -2 -65 -9 -115 -15 -273 -34 -598 -156 -845 -316
-324 -211 -563 -480 -739 -834 -297 -597 -293 -1283 11 -1881 440 -868 1432
-1321 2371 -1084 390 99 714 283 989 563 107 109 148 157 217 253 38 53 46 72
46 108 0 37 -5 48 -33 73 -42 37 -76 37 -189 0 -382 -127 -783 -98 -1148 85
-414 206 -702 585 -802 1054 -26 121 -26 449 0 570 67 309 206 569 418 780
153 152 326 264 526 340 98 38 123 63 123 127 0 84 -60 114 -321 158 -89 16
-452 29 -509 19z m337 -220 c19 -5 13 -12 -50 -53 -372 -244 -639 -641 -739
-1101 -20 -92 -22 -133 -22 -335 0 -201 2 -243 22 -333 122 -557 458 -987 957
-1223 301 -142 607 -191 955 -153 l55 7 -40 -43 c-60 -63 -189 -165 -290 -227
-559 -349 -1232 -387 -1820 -103 -590 284 -981 842 -1054 1502 -53 478 103
996 415 1379 82 101 258 266 364 342 121 86 354 203 496 249 122 40 276 75
380 87 83 10 340 13 371 5z"/>
</g>
</svg>
